{
  "asset": { "version": "2.0", "generator": "TwinSeat placeholder crew mesh" },
  "scene": 0,
  "scenes": [{ "nodes": [2] }],
  "nodes": [
    { "mesh": 0, "translation": [0, 0.45, 0], "scale": [0.32, 0.9, 0.22], "name": "torso" },
    { "mesh": 0, "translation": [0, 1.05, 0], "scale": [0.18, 0.18, 0.18], "name": "head" },
    { "children": [0, 1], "name": "crew" }
  ],
  "meshes": [{
    "primitives": [{
      "attributes": { "POSITION": 0 },
      "indices": 1,
      "mode": 4
    }]
  }],
  "accessors": [
    {
      "bufferView": 0,
      "componentType": 5126,
      "count": 8,
      "type": "VEC3",
      "min": [-0.5, -0.5, -0.5],
      "max": [0.5, 0.5, 0.5]
    },
    {
      "bufferView": 1,
      "componentType": 5123,
      "count": 36,
      "type": "SCALAR"
    }
  ],
  "bufferViews": [
    { "buffer": 0, "byteOffset": 0, "byteLength": 96 },
    { "buffer": 0, "byteOffset": 96, "byteLength": 72 }
  ],
  "buffers": [{
    "uri": "data:application/octet-stream;base64,",
    "byteLength": 168
  }]
}
